<?xml version="1.0" encoding="UTF-8" standalone="no"?>
<svg
   xmlns:dc="http://purl.org/dc/elements/1.1/"
   xmlns:cc="http://creativecommons.org/ns#"
   xmlns:rdf="http://www.w3.org/1999/02/22-rdf-syntax-ns#"
   xmlns:svg="http://www.w3.org/2000/svg"
   xmlns="http://www.w3.org/2000/svg"
   xmlns:sodipodi="http://sodipodi.sourceforge.net/DTD/sodipodi-0.dtd"
   xmlns:inkscape="http://www.inkscape.org/namespaces/inkscape"
   id="svg37252"
   viewBox="0 0 462.94 462.94"
   version="1.1"
   sodipodi:docname="Globe-6.svg"
   inkscape:version="1.0.1 (c497b03c, 2020-09-10)">
  <defs
     id="defs2806" />
  <sodipodi:namedview
     pagecolor="#ffffff"
     bordercolor="#666666"
     borderopacity="1"
     objecttolerance="10"
     gridtolerance="10"
     guidetolerance="10"
     inkscape:pageopacity="0"
     inkscape:pageshadow="2"
     inkscape:window-width="1293"
     inkscape:window-height="767"
     id="namedview2804"
     showgrid="false"
     inkscape:zoom="0.85017348"
     inkscape:cx="209.21582"
     inkscape:cy="254.18574"
     inkscape:window-x="200"
     inkscape:window-y="25"
     inkscape:window-maximized="0"
     inkscape:current-layer="g27338" />
  <g
     id="layer1"
     transform="translate(-47.192 -74.56)">
    <g
       id="g27338"
       style="stroke:#0000ff"
       transform="matrix(2.0936 0 0 2.0936 271.75 304.77)">
      <g
         id="g27340"
         style="opacity:1;stroke:#000000;stroke-width:3.08963984;stroke-miterlimit:4;stroke-dasharray:none;stroke-opacity:1"
         transform="matrix(1.0821759,0,0,1.082169,3.0769956,0.3766579)">
        <path
           id="path27342"
           style="fill:none;stroke:#000000;stroke-width:3.08963984;stroke-miterlimit:4;stroke-dasharray:none;stroke-opacity:1"
           d="M 1.5314e-7,100 C -3.1563998,100 -5.7150998,55.228 -5.7150998,0 c 0,-55.228 2.5587,-100 5.71509995314,-100 h 2.6524e-7"
           transform="rotate(2.2968)" />
        <path
           id="path27346"
           style="fill:none;stroke:#000000;stroke-width:3.08963984;stroke-miterlimit:4;stroke-dasharray:none;stroke-opacity:1"
           d="M 1.2274e-6,100 C -25.298999,100 -45.806999,55.228 -45.806999,0 c 0,-55.228 20.508,-100 45.8070002274,-100 h 2.1259e-6"
           transform="rotate(21.151)" />
        <path
           id="path27350"
           style="fill:none;stroke:#000000;stroke-width:3.08963984;stroke-miterlimit:4;stroke-dasharray:none;stroke-opacity:1"
           d="M 1.9728e-6,100 C -40.661998,100 -73.625998,55.228 -73.625998,0 c 0,-55.228 32.964,-100 73.6259999728,-100 h 3.417e-6"
           transform="rotate(49.624047)" />
        <path
           id="path27354"
           style="fill:none;stroke:#000000;stroke-width:3.08963984;stroke-miterlimit:4;stroke-dasharray:none;stroke-opacity:1"
           d="M 1.6029e-6,-100 C 45.131002,-100 81.717002,-55.228 81.717002,0 c 0,55.228 -36.586,100 -81.7170003971,100"
           transform="rotate(-83.049)" />
        <path
           id="path27358"
           style="fill:none;stroke:#000000;stroke-width:3.08963984;stroke-miterlimit:4;stroke-dasharray:none;stroke-opacity:1"
           d="M 1.3321e-6,-100 C 37.507001,-100 67.912001,-55.228 67.912001,0 c 0,55.228 -30.405,100 -67.9119996679,100"
           transform="rotate(-40.377)" />
        <path
           id="path27362"
           style="fill:none;stroke:#000000;stroke-width:3.08963984;stroke-miterlimit:4;stroke-dasharray:none;stroke-opacity:1"
           d="M 7.0439e-7,-100 C 19.833001,-100 35.910001,-55.228 35.910001,0 35.910001,55.228 19.833001,100 7.0439e-7,100"
           transform="rotate(-15.629)" />
      </g>
      <g
         id="g27366"
         style="opacity:1;stroke:#000000;stroke-width:3.08963984;stroke-miterlimit:4;stroke-dasharray:none;stroke-opacity:1"
         transform="matrix(1.0821759,0,0,1.082169,3.0769956,0.3766579)">
        <path
           id="path27368"
           style="fill:none;stroke:#000000;stroke-width:3.08963984;stroke-miterlimit:4;stroke-dasharray:none;stroke-opacity:1"
           d="m 15.682,98.764 c -10.262,1.6294 -21.102,1.6294 -31.364,10e-7" />
        <path
           id="path27376"
           style="fill:none;stroke:#000000;stroke-width:3.08963984;stroke-miterlimit:4;stroke-dasharray:none;stroke-opacity:1"
           d="M 92.612,37.724 C 80.661,67.062 29.51,85.288 -21.638,78.434 -56.87,73.712 -84.38,57.933 -92.612,37.724" />
        <path
           id="path27384"
           style="fill:none;stroke:#000000;stroke-width:3.08963984;stroke-miterlimit:4;stroke-dasharray:none;stroke-opacity:1"
           d="m 92.612,-37.724 c 11.948,29.338 -19.826,58.677 -70.974,65.532 -51.148,6.854 -102.3,-11.372 -114.25,-40.71 -3.3255,-8.1641 -3.3255,-16.658 10e-7,-24.822" />
        <path
           id="path27392"
           style="fill:none;stroke:#000000;stroke-width:3.08963984;stroke-miterlimit:4;stroke-dasharray:none;stroke-opacity:1"
           d="m 15.682,-98.764 c 31.286,4.9678 49.627,23.543 40.966,41.488 -8.6609,17.945 -41.044,28.466 -72.33,23.498 -31.286,-4.9678 -49.627,-23.543 -40.966,-41.488 5.5101,-11.417 21.062,-20.337 40.966,-23.498" />
      </g>
      <path
         id="path27400"
         style="opacity:1;fill:none;stroke:#000000;stroke-width:3.34352312;stroke-miterlimit:4;stroke-dasharray:none;stroke-opacity:1"
         d="m 111.29458,0.3766579 c 0,59.7660291 -48.451179,108.2169021 -108.2175844,108.2169021 -4.00517579,0 -7.9595366,-0.2176 -11.8519064,-0.64158 C -62.96562,102.04898 -105.14059,56.137537 -105.14059,0.3766579 c 0,-59.7660259 48.451181,-108.2168979 108.2175856,-108.2168979 59.7664054,0 108.2175844,48.450872 108.2175844,108.2168979 z"
         sodipodi:nodetypes="ssssss" />
    </g>
  </g>
  <metadata
     id="metadata2801">
    <rdf:RDF>
      <cc:Work>
        <dc:format>image/svg+xml</dc:format>
        <dc:type
           rdf:resource="http://purl.org/dc/dcmitype/StillImage" />
        <cc:license
           rdf:resource="http://creativecommons.org/licenses/publicdomain/" />
        <dc:publisher>
          <cc:Agent
             rdf:about="http://openclipart.org/">
            <dc:title>Openclipart</dc:title>
          </cc:Agent>
        </dc:publisher>
        <dc:title></dc:title>
        <dc:date>2010-08-16T19:25:18</dc:date>
        <dc:description>Vector wire-framed globes.</dc:description>
        <dc:source>https://openclipart.org/detail/80965/globe-5-by-inky2010</dc:source>
        <dc:creator>
          <cc:Agent>
            <dc:title>inky2010</dc:title>
          </cc:Agent>
        </dc:creator>
        <dc:subject>
          <rdf:Bag>
            <rdf:li>3D</rdf:li>
            <rdf:li>Wire-frame</rdf:li>
            <rdf:li>globe</rdf:li>
            <rdf:li>gloss</rdf:li>
            <rdf:li>glossy</rdf:li>
            <rdf:li>glow</rdf:li>
            <rdf:li>icon</rdf:li>
            <rdf:li>inkscape</rdf:li>
            <rdf:li>inky2010</rdf:li>
            <rdf:li>transparent</rdf:li>
            <rdf:li>wire</rdf:li>
          </rdf:Bag>
        </dc:subject>
      </cc:Work>
      <cc:License
         rdf:about="http://creativecommons.org/licenses/publicdomain/">
        <cc:permits
           rdf:resource="http://creativecommons.org/ns#Reproduction" />
        <cc:permits
           rdf:resource="http://creativecommons.org/ns#Distribution" />
        <cc:permits
           rdf:resource="http://creativecommons.org/ns#DerivativeWorks" />
      </cc:License>
    </rdf:RDF>
  </metadata>
</svg>
